#N canvas 809 0 548 686 10;
#X obj 36 37 bng 15 250 50 0 empty empty empty 17 7 0 10 -262144 -1
-1;
#X obj 86 38 bng 15 250 50 0 empty empty empty 17 7 0 10 -262144 -1
-1;
#X obj 150 38 bng 15 250 50 0 empty empty empty 17 7 0 10 -262144 -1
-1;
#X obj 214 35 bng 15 250 50 0 empty empty empty 17 7 0 10 -262144 -1
-1;
#X obj 271 35 bng 15 250 50 0 empty empty empty 17 7 0 10 -262144 -1
-1;
#X obj 323 36 bng 15 250 50 0 empty empty empty 17 7 0 10 -262144 -1
-1;
#X obj 379 34 bng 15 250 50 0 empty empty empty 17 7 0 10 -262144 -1
-1;
#X obj 440 33 bng 15 250 50 0 empty empty empty 17 7 0 10 -262144 -1
-1;
#X obj 502 32 bng 15 250 50 0 empty empty empty 17 7 0 10 -262144 -1
-1;
#X obj 570 30 bng 15 250 50 0 empty empty empty 17 7 0 10 -262144 -1
-1;
#X obj 34 86 127;
#X obj 90 87 127;
#X obj 150 91 127;
#X obj 212 90 127;
#X obj 271 89 127;
#X obj 327 87 127;
#X obj 387 92 127;
#X obj 451 88 127;
#X obj 509 89 127;
#X obj 569 90 127;
#X obj 26 160 ctlout 1 13;
#X obj 91 138 ctlout 2 13;
#X obj 150 166 ctlout 3 13;
#X obj 210 137 ctlout 4 13;
#X obj 271 169 ctlout 5 13;
#X obj 328 137 ctlout 6 13;
#X obj 388 165 ctlout 7 13;
#X obj 450 136 ctlout 8 13;
#X obj 508 168 ctlout 9 13;
#X obj 569 134 ctlout 10 13;
#X text 18 15 L Up;
#X text 71 14 L Down;
#X text 138 13 L Left;
#X text 198 11 L Right;
#X text 264 9 R Up;
#X text 314 7 R Down;
#X text 371 6 R Left;
#X text 431 5 R Right;
#X text 495 2 L Trig;
#X text 562 3 R Trig;
#X connect 0 0 10 0;
#X connect 1 0 11 0;
#X connect 2 0 12 0;
#X connect 3 0 13 0;
#X connect 4 0 14 0;
#X connect 5 0 15 0;
#X connect 6 0 16 0;
#X connect 7 0 17 0;
#X connect 8 0 18 0;
#X connect 9 0 19 0;
#X connect 10 0 20 0;
#X connect 11 0 21 0;
#X connect 12 0 22 0;
#X connect 13 0 23 0;
#X connect 14 0 24 0;
#X connect 15 0 25 0;
#X connect 16 0 26 0;
#X connect 17 0 27 0;
#X connect 18 0 28 0;
#X connect 19 0 29 0;
