#N canvas 612 68 866 300 10;
#X obj 36 37 bng 15 250 50 0 empty empty empty 17 7 0 10 -262144 -1
-1;
#X obj 86 38 bng 15 250 50 0 empty empty empty 17 7 0 10 -262144 -1
-1;
#X obj 150 38 bng 15 250 50 0 empty empty empty 17 7 0 10 -262144 -1
-1;
#X obj 214 35 bng 15 250 50 0 empty empty empty 17 7 0 10 -262144 -1
-1;
#X obj 271 35 bng 15 250 50 0 empty empty empty 17 7 0 10 -262144 -1
-1;
#X obj 323 36 bng 15 250 50 0 empty empty empty 17 7 0 10 -262144 -1
-1;
#X obj 379 34 bng 15 250 50 0 empty empty empty 17 7 0 10 -262144 -1
-1;
#X obj 440 33 bng 15 250 50 0 empty empty empty 17 7 0 10 -262144 -1
-1;
#X obj 33 139 ctlout 1;
#X obj 502 32 bng 15 250 50 0 empty empty empty 17 7 0 10 -262144 -1
-1;
#X obj 570 30 bng 15 250 50 0 empty empty empty 17 7 0 10 -262144 -1
-1;
#X obj 91 138 ctlout 2;
#X obj 152 137 ctlout 3;
#X obj 210 137 ctlout 4;
#X obj 271 137 ctlout 5;
#X obj 328 137 ctlout 6;
#X obj 388 136 ctlout 7;
#X obj 450 136 ctlout 8;
#X obj 509 134 ctlout 9;
#X obj 569 134 ctlout 10;
#X obj 34 86 127;
#X obj 90 87 127;
#X obj 150 91 127;
#X obj 212 90 127;
#X obj 271 89 127;
#X obj 327 87 127;
#X obj 387 92 127;
#X obj 451 88 127;
#X obj 509 89 127;
#X obj 569 90 127;
#X obj 22 182 bng 15 250 50 0 empty empty empty 17 7 0 10 -262144 -1
-1;
#X obj 27 409 noteout 1;
#X obj 245 180 bng 15 250 50 0 empty empty empty 17 7 0 10 -262144
-1 -1;
#X obj 252 350 noteout 1;
#X obj 24 315 moses 1;
#X obj 248 243 moses 1;
#X obj 21 224 1;
#X obj 244 209 1;
#X msg 90 360 59 127;
#X msg 306 298 60 127;
#X msg 247 299 60 \$1;
#X msg 27 362 59 \$1;
#X floatatom 22 273 5 0 0 0 - - -;
#X connect 0 0 20 0;
#X connect 1 0 21 0;
#X connect 2 0 22 0;
#X connect 3 0 23 0;
#X connect 4 0 24 0;
#X connect 5 0 25 0;
#X connect 6 0 26 0;
#X connect 7 0 27 0;
#X connect 9 0 28 0;
#X connect 10 0 29 0;
#X connect 20 0 8 0;
#X connect 21 0 11 0;
#X connect 22 0 12 0;
#X connect 23 0 13 0;
#X connect 24 0 14 0;
#X connect 25 0 15 0;
#X connect 26 0 16 0;
#X connect 27 0 17 0;
#X connect 28 0 18 0;
#X connect 29 0 19 0;
#X connect 30 0 36 0;
#X connect 32 0 37 0;
#X connect 34 0 41 0;
#X connect 34 0 38 0;
#X connect 35 0 40 0;
#X connect 35 0 39 0;
#X connect 36 0 42 0;
#X connect 37 0 35 0;
#X connect 38 0 31 0;
#X connect 39 0 33 0;
#X connect 40 0 33 0;
#X connect 41 0 31 0;
#X connect 42 0 34 0;
