#N canvas 683 0 667 709 10;
#X obj -33 13 hidin;
#X obj -35 -34 tgl 15 0 empty empty empty 17 7 0 10 -262144 -1 -1 1
1;
#X floatatom -104 -46 5 0 0 0 - - -;
#X msg -102 -23 open \$1;
#X obj -104 -76 hradio 15 1 0 8 empty empty empty 0 -8 0 10 -262144
-1 -1 2;
#X floatatom -105 174 5 0 0 0 - - -;
#X floatatom 19 168 5 0 0 0 - - -;
#X floatatom 283 221 5 0 0 0 - - -;
#X floatatom 480 220 5 0 0 0 - - -;
#X obj 734 26 moses 1;
#X msg 16 -25 print;
#X msg 696 62 64 \$1;
#X obj 816 35 moses 1;
#X obj 890 26 moses 1;
#X obj 999 31 moses 1;
#X msg 801 84 71 \$1;
#X msg 891 75 74 \$1;
#X msg 1003 67 66 \$1;
#X floatatom 741 -16 5 0 0 0 - - -;
#X floatatom 830 -8 5 0 0 0 - - -;
#X floatatom 884 -9 5 0 0 0 - - -;
#X floatatom 990 -3 5 0 0 0 - - -;
#X obj 173 -48 route 11 12;
#X msg 747 61 64 127;
#X msg 843 83 71 127;
#X msg 937 74 74 127;
#X msg 1046 66 66 127;
#X obj 738 -43 route 7 8 9 10;
#X obj 666 104 print A;
#X obj 776 140 print B;
#X obj 892 143 print X;
#X obj 1015 146 print Y;
#X obj 133 -4 moses 1;
#X msg 118 40 55 \$1;
#X msg 169 39 55 127;
#X obj 267 3 moses 1;
#X msg 252 47 56 \$1;
#X msg 303 46 56 127;
#X obj 88 82 print LB;
#X obj 222 89 print RB;
#X obj 19 210 / 65535;
#X obj 283 261 / 65535;
#X obj 480 262 / 65535;
#X floatatom -71 460 5 0 0 0 - - -;
#X obj -127 575 print LstckUp;
#X obj -62 520 print LstckDn;
#X obj -105 206 / 65535;
#X floatatom -147 461 5 0 0 0 - - -;
#X obj -147 324 * 254;
#X obj -147 393 abs;
#X obj -147 423 i;
#X obj -71 322 * 254;
#X obj -71 424 i;
#X floatatom 18 459 5 0 0 0 - - -;
#X obj 18 425 i;
#X floatatom 101 459 5 0 0 0 - - -;
#X obj 101 425 i;
#X obj 38 580 print LstckLft;
#X obj 121 517 print LstckRht;
#X obj 18 391 abs;
#X obj 265 618 print RstckUp;
#X floatatom 460 528 5 0 0 0 - - -;
#X floatatom 540 527 5 0 0 0 - - -;
#X obj 540 498 i;
#X obj 351 572 print RstckDn;
#X obj 557 599 print LstckRht;
#X obj -124 39 print;
#X floatatom 745 527 5 0 0 0 - - -;
#X obj 687 258 / 65535;
#X floatatom 651 527 5 0 0 0 - - -;
#X obj 651 492 i;
#X obj 2 112 route 1 2 3 4 5;
#X floatatom 689 227 5 0 0 0 - - -;
#X obj 665 642 print RTrig;
#X obj 766 588 print LTrig;
#X obj 411 7 moses 1;
#X obj 545 14 moses 1;
#X obj 451 -37 route 13 14;
#X msg 396 51 57 \$1;
#X msg 447 50 57 127;
#X msg 530 58 58 \$1;
#X msg 581 57 58 127;
#X obj 366 93 print Back;
#X obj 500 100 print Start;
#X obj -147 358 - 127;
#X obj 872 269 moses 1;
#X obj 1006 276 moses 1;
#X obj 912 225 route 15 16;
#X obj 827 355 print Lstick;
#X obj 969 366 print Rstick;
#X msg 857 313 59 \$1;
#X msg 908 311 59 127;
#X msg 991 320 60 \$1;
#X msg 1042 319 60 127;
#X obj -71 271 - 1;
#X obj -71 358 + 127;
#X obj 18 322 * 254;
#X obj 18 356 - 127;
#X obj 101 336 * 254;
#X obj 101 285 - 1;
#X obj 101 372 + 127;
#X obj 246 400 * 254;
#X obj 246 469 abs;
#X obj 331 398 * 254;
#X obj 246 434 - 127;
#X obj 331 347 - 1;
#X obj 331 434 + 127;
#X floatatom 246 536 5 0 0 0 - - -;
#X obj 246 502 i;
#X floatatom 331 536 5 0 0 0 - - -;
#X obj 331 502 i;
#X obj 460 396 * 254;
#X obj 460 465 abs;
#X obj 460 430 - 127;
#X obj 460 499 i;
#X obj 540 397 * 254;
#X obj 540 333 - 1;
#X obj 540 429 + 127;
#X obj 475 645 print LstckLft;
#X obj 651 295 clip 0 0.4;
#X obj 745 296 clip 0.6 1;
#X obj 651 389 * 254;
#X obj 651 458 abs;
#X obj 651 423 - 127;
#X obj 651 360 * 1.25;
#X obj 745 395 * 254;
#X obj 745 331 - 1;
#X obj 745 364 * 1.25;
#X obj 745 427 + 127;
#X obj 745 492 i;
#X obj 745 458 abs;
#X obj -147 248 clip 0 0.35;
#X obj -71 246 clip 0.65 1;
#X obj -147 287 * 1.42;
#X obj -71 296 * 1.42;
#X obj 18 285 * 1.42;
#X obj 101 310 * 1.42;
#X obj 246 363 * 1.42;
#X obj 331 372 * 1.42;
#X obj 460 367 * 1.42;
#X obj 540 366 * 1.42;
#X obj 18 245 clip 0 0.35;
#X obj 100 245 clip 0.65 1;
#X obj 246 308 clip 0 0.35;
#X obj 331 309 clip 0.65 1;
#X obj 460 309 clip 0 0.35;
#X obj 540 309 clip 0.65 1;
#X obj 144 86 noteout 13;
#X obj 278 93 noteout 13;
#X obj 436 92 noteout 13;
#X obj 579 100 noteout 13;
#X obj 722 108 noteout 13;
#X obj 828 141 noteout 13;
#X obj 944 144 noteout 13;
#X obj 1067 147 noteout 13;
#X obj 898 389 noteout 13;
#X obj 1043 387 noteout 13;
#X obj -147 597 ctlout 1 13;
#X obj -71 543 ctlout 2 13;
#X obj 18 603 ctlout 3 13;
#X obj 101 541 ctlout 4 13;
#X obj 246 641 ctlout 5 13;
#X obj 331 595 ctlout 6 13;
#X obj 460 665 ctlout 7 13;
#X obj 540 623 ctlout 8 13;
#X obj 651 665 ctlout 10 13;
#X obj 745 619 ctlout 9 13;
#X connect 0 0 22 0;
#X connect 0 0 27 0;
#X connect 0 0 71 0;
#X connect 0 0 77 0;
#X connect 0 0 87 0;
#X connect 1 0 0 0;
#X connect 2 0 3 0;
#X connect 3 0 0 0;
#X connect 4 0 2 0;
#X connect 5 0 46 0;
#X connect 6 0 40 0;
#X connect 7 0 41 0;
#X connect 8 0 42 0;
#X connect 9 0 11 0;
#X connect 9 1 23 0;
#X connect 10 0 0 0;
#X connect 11 0 28 0;
#X connect 11 0 151 0;
#X connect 12 0 15 0;
#X connect 12 1 24 0;
#X connect 13 0 16 0;
#X connect 13 1 25 0;
#X connect 14 0 17 0;
#X connect 14 1 26 0;
#X connect 15 0 29 0;
#X connect 15 0 152 0;
#X connect 16 0 30 0;
#X connect 16 0 153 0;
#X connect 17 0 31 0;
#X connect 17 0 154 0;
#X connect 18 0 9 0;
#X connect 19 0 12 0;
#X connect 20 0 13 0;
#X connect 21 0 14 0;
#X connect 22 0 32 0;
#X connect 22 1 35 0;
#X connect 23 0 28 0;
#X connect 23 0 151 0;
#X connect 24 0 29 0;
#X connect 24 0 152 0;
#X connect 25 0 30 0;
#X connect 25 0 153 0;
#X connect 26 0 31 0;
#X connect 26 0 154 0;
#X connect 27 0 18 0;
#X connect 27 1 19 0;
#X connect 27 2 20 0;
#X connect 27 3 21 0;
#X connect 32 0 33 0;
#X connect 32 1 34 0;
#X connect 33 0 38 0;
#X connect 33 0 147 0;
#X connect 34 0 38 0;
#X connect 34 0 147 0;
#X connect 35 0 36 0;
#X connect 35 1 37 0;
#X connect 36 0 39 0;
#X connect 36 0 148 0;
#X connect 37 0 39 0;
#X connect 37 0 148 0;
#X connect 40 0 141 0;
#X connect 40 0 142 0;
#X connect 41 0 143 0;
#X connect 41 0 144 0;
#X connect 42 0 145 0;
#X connect 42 0 146 0;
#X connect 43 0 45 0;
#X connect 43 0 158 0;
#X connect 46 0 131 0;
#X connect 46 0 132 0;
#X connect 47 0 44 0;
#X connect 47 0 157 0;
#X connect 48 0 84 0;
#X connect 49 0 50 0;
#X connect 50 0 47 0;
#X connect 51 0 95 0;
#X connect 52 0 43 0;
#X connect 53 0 57 0;
#X connect 53 0 159 0;
#X connect 54 0 53 0;
#X connect 55 0 58 0;
#X connect 55 0 160 0;
#X connect 56 0 55 0;
#X connect 59 0 54 0;
#X connect 61 0 118 0;
#X connect 61 0 163 0;
#X connect 62 0 65 0;
#X connect 62 0 164 0;
#X connect 63 0 62 0;
#X connect 67 0 74 0;
#X connect 67 0 166 0;
#X connect 68 0 119 0;
#X connect 68 0 120 0;
#X connect 69 0 73 0;
#X connect 69 0 165 0;
#X connect 70 0 69 0;
#X connect 71 0 5 0;
#X connect 71 1 6 0;
#X connect 71 2 7 0;
#X connect 71 3 8 0;
#X connect 71 4 72 0;
#X connect 72 0 68 0;
#X connect 75 0 78 0;
#X connect 75 1 79 0;
#X connect 76 0 80 0;
#X connect 76 1 81 0;
#X connect 77 0 75 0;
#X connect 77 1 76 0;
#X connect 78 0 82 0;
#X connect 78 0 149 0;
#X connect 79 0 82 0;
#X connect 79 0 149 0;
#X connect 80 0 83 0;
#X connect 80 0 150 0;
#X connect 81 0 83 0;
#X connect 81 0 150 0;
#X connect 84 0 49 0;
#X connect 85 0 90 0;
#X connect 85 1 91 0;
#X connect 86 0 92 0;
#X connect 86 1 93 0;
#X connect 87 0 85 0;
#X connect 87 1 86 0;
#X connect 90 0 88 0;
#X connect 90 0 155 0;
#X connect 91 0 88 0;
#X connect 91 0 155 0;
#X connect 92 0 89 0;
#X connect 92 0 156 0;
#X connect 93 0 89 0;
#X connect 93 0 156 0;
#X connect 94 0 134 0;
#X connect 95 0 52 0;
#X connect 96 0 97 0;
#X connect 97 0 59 0;
#X connect 98 0 100 0;
#X connect 99 0 136 0;
#X connect 100 0 56 0;
#X connect 101 0 104 0;
#X connect 102 0 108 0;
#X connect 103 0 106 0;
#X connect 104 0 102 0;
#X connect 105 0 138 0;
#X connect 106 0 110 0;
#X connect 107 0 60 0;
#X connect 107 0 161 0;
#X connect 108 0 107 0;
#X connect 109 0 64 0;
#X connect 109 0 162 0;
#X connect 110 0 109 0;
#X connect 111 0 113 0;
#X connect 112 0 114 0;
#X connect 113 0 112 0;
#X connect 114 0 61 0;
#X connect 115 0 117 0;
#X connect 116 0 140 0;
#X connect 117 0 63 0;
#X connect 119 0 124 0;
#X connect 120 0 126 0;
#X connect 121 0 123 0;
#X connect 122 0 70 0;
#X connect 123 0 122 0;
#X connect 124 0 121 0;
#X connect 125 0 128 0;
#X connect 126 0 127 0;
#X connect 127 0 125 0;
#X connect 128 0 130 0;
#X connect 129 0 67 0;
#X connect 130 0 129 0;
#X connect 131 0 133 0;
#X connect 132 0 94 0;
#X connect 133 0 48 0;
#X connect 134 0 51 0;
#X connect 135 0 96 0;
#X connect 136 0 98 0;
#X connect 137 0 101 0;
#X connect 138 0 103 0;
#X connect 139 0 111 0;
#X connect 140 0 115 0;
#X connect 141 0 135 0;
#X connect 142 0 99 0;
#X connect 143 0 137 0;
#X connect 144 0 105 0;
#X connect 145 0 139 0;
#X connect 146 0 116 0;
