#N canvas 252 0 1105 686 10;
#X obj 209 -36 hidin;
#X obj 207 -91 tgl 15 0 empty empty empty 17 7 0 10 -262144 -1 -1 0
1;
#X floatatom 138 -91 5 0 0 0 - - -;
#X msg 138 -56 open \$1;
#X obj 138 -125 hradio 15 1 0 8 empty empty empty 0 -8 0 10 -262144
-1 -1 0;
#X floatatom 377 275 5 0 0 0 - - -;
#X floatatom 578 275 5 0 0 0 - - -;
#X obj 1092 461 moses 1;
#X msg 1058 518 64 \$1;
#X obj 1176 461 moses 1;
#X obj 1250 462 moses 1;
#X obj 1326 461 moses 1;
#X msg 1169 516 71 \$1;
#X msg 1266 516 74 \$1;
#X msg 1372 516 66 \$1;
#X floatatom 1125 415 5 0 0 0 - - -;
#X floatatom 1176 415 5 0 0 0 - - -;
#X floatatom 1230 415 5 0 0 0 - - -;
#X floatatom 1290 416 5 0 0 0 - - -;
#X obj 658 844 route 11 12;
#X msg 1116 517 64 127;
#X msg 1212 516 71 127;
#X msg 1319 516 74 127;
#X msg 1424 517 66 127;
#X obj 1134 370 route 7 8 9 10;
#X obj 1042 576 print A;
#X obj 1158 578 print B;
#X obj 1274 578 print X;
#X obj 1397 578 print Y;
#X obj 377 310 / 65535;
#X obj 578 310 / 65535;
#X floatatom -36 666 5 0 0 0 - - -;
#X floatatom -136 665 5 0 0 0 - - -;
#X obj -36 630 i;
#X floatatom 328 631 5 0 0 0 - - -;
#X floatatom 457 668 5 0 0 0 - - -;
#X floatatom 567 665 5 0 0 0 - - -;
#X obj 889 227 / 65535;
#X obj 210 53 route 1 2 3 4 5;
#X floatatom 889 192 5 0 0 0 - - -;
#X obj 913 788 print RTrig;
#X obj 997 824 print LTrig;
#X obj 1347 243 moses 1;
#X obj 1481 243 moses 1;
#X obj 1387 204 route 13 14;
#X msg 1347 279 57 \$1;
#X msg 1383 279 57 127;
#X msg 1481 279 58 \$1;
#X msg 1517 279 58 127;
#X obj 1302 314 print Back;
#X obj 1436 336 print Start;
#X obj 1556 463 moses 1;
#X obj 1690 463 moses 1;
#X obj 1596 435 route 15 16;
#X obj 1511 534 print Lstick;
#X obj 1653 534 print Rstick;
#X msg 1556 499 59 \$1;
#X msg 1592 498 59 127;
#X msg 1690 499 60 \$1;
#X msg 1726 498 60 127;
#X obj -145 1031 ctlout 1 13;
#X obj -42 1031 ctlout 2 13;
#X obj 71 1031 ctlout 3 13;
#X obj 175 1031 ctlout 4 13;
#X obj 343 1031 ctlout 5 13;
#X obj 467 1031 ctlout 6 13;
#X obj 580 1031 ctlout 7 13;
#X obj 682 1031 ctlout 8 13;
#X obj 864 753 ctlout 9 13;
#X obj 997 752 ctlout 10 13;
#X obj -136 700 clip 0 127;
#X floatatom -93 275 5 0 0 0 - - -;
#X obj -93 310 / 65535;
#X floatatom -93 346 5 0 0 0 - - -;
#X obj -136 415 spigot;
#X obj -36 415 spigot;
#X obj -36 451 - 1;
#X floatatom -36 523 5 0 0 0 - - -;
#X obj -36 558 abs;
#X obj -36 594 * 127;
#X obj -136 629 i;
#X floatatom -136 522 5 0 0 0 - - -;
#X obj -136 557 abs;
#X obj -136 593 * 127;
#X floatatom -136 451 5 0 0 0 - - -;
#X floatatom 123 275 5 0 0 0 - - -;
#X obj 123 310 / 65535;
#X floatatom 181 702 5 0 0 0 - - -;
#X floatatom 84 701 5 0 0 0 - - -;
#X obj 181 666 i;
#X floatatom 123 346 5 0 0 0 - - -;
#X obj 84 415 spigot;
#X obj 181 451 spigot;
#X obj 181 487 - 1;
#X floatatom 181 559 5 0 0 0 - - -;
#X obj 180 557 abs;
#X obj 181 630 * 127;
#X obj 84 665 i;
#X floatatom 84 522 5 0 0 0 - - -;
#X obj 84 557 abs;
#X obj 84 593 * 127;
#X floatatom 84 451 5 0 0 0 - - -;
#X obj 84 629 clip 0 1;
#X obj 181 594 clip 0 1;
#X obj 457 632 i;
#X obj 328 381 spigot;
#X obj 457 381 spigot;
#X obj 457 417 - 1;
#X floatatom 457 489 5 0 0 0 - - -;
#X obj 457 524 abs;
#X obj 457 596 * 127;
#X obj 328 595 i;
#X floatatom 328 488 5 0 0 0 - - -;
#X obj 328 523 abs;
#X obj 328 559 * 127;
#X floatatom 328 417 5 0 0 0 - - -;
#X obj 324 557 clip 0 1;
#X obj 457 560 clip 0 1;
#X obj 377 346 < 0.2;
#X obj 490 346 > 0.8;
#X obj 328 452 / 0.2;
#X obj 457 453 / 0.2;
#X floatatom 668 668 5 0 0 0 - - -;
#X obj 668 632 i;
#X obj 571 381 spigot;
#X obj 668 381 spigot;
#X obj 668 417 - 1;
#X floatatom 668 489 5 0 0 0 - - -;
#X obj 668 524 abs;
#X obj 668 596 * 127;
#X obj 571 595 i;
#X floatatom 571 488 5 0 0 0 - - -;
#X obj 571 523 abs;
#X obj 571 559 * 127;
#X floatatom 571 417 5 0 0 0 - - -;
#X obj 567 557 clip 0 1;
#X obj 668 560 clip 0 1;
#X obj 604 346 < 0.2;
#X obj 701 346 > 0.8;
#X obj 571 452 / 0.2;
#X obj 668 453 / 0.2;
#X obj -3 381 > 0.8;
#X obj -136 486 / 0.2;
#X obj -36 487 / 0.2;
#X obj 116 415 < 0.2;
#X obj 214 415 > 0.8;
#X obj 84 486 / 0.2;
#X obj 181 523 / 0.2;
#X obj -136 772 abs;
#X obj -36 701 clip 0 127;
#X obj -36 737 - 127;
#X obj -36 773 abs;
#X obj 84 736 clip 0 127;
#X obj 84 772 - 127;
#X obj 84 808 abs;
#X obj 181 737 clip 0 127;
#X obj 181 773 - 127;
#X obj 181 809 abs;
#X obj -136 736 - 127;
#X obj 328 666 clip 0 127;
#X obj 328 702 - 127;
#X obj 328 772 abs;
#X obj 458 665 clip 0 127;
#X obj 457 703 - 127;
#X obj 457 772 abs;
#X obj 566 665 clip 0 127;
#X obj 566 701 - 127;
#X obj 566 772 abs;
#X obj 668 703 clip 0 127;
#X obj 668 739 - 127;
#X obj 668 775 abs;
#X obj 1383 315 noteout 7;
#X obj 1517 315 noteout 7;
#X obj 1097 578 noteout 7;
#X obj 1210 578 noteout 7;
#X obj 1326 578 noteout 7;
#X obj 1449 578 noteout 7;
#X obj 1582 569 noteout 7;
#X obj 1727 569 noteout 7;
#X obj -93 381 < 0.2;
#X text -140 77 Deadzone = 0.2;
#X floatatom 864 610 5 0 0 0 - - -;
#X obj 864 574 i;
#X obj 864 326 spigot;
#X floatatom 864 431 5 0 0 0 - - -;
#X obj 864 466 abs;
#X obj 864 538 * 127;
#X obj 864 502 clip 0 1;
#X obj 864 645 clip 0 127;
#X obj 864 681 - 127;
#X obj 864 717 abs;
#X floatatom 956 577 5 0 0 0 - - -;
#X obj 956 541 i;
#X obj 956 326 spigot;
#X obj 956 398 - 1;
#X floatatom 956 434 5 0 0 0 - - -;
#X obj 956 469 abs;
#X obj 956 505 * 127;
#X obj 954 466 clip 0 1;
#X obj 956 612 clip 0 127;
#X obj 957 680 abs;
#X obj 897 290 < 0.5;
#X obj 989 290 > 0.5;
#X obj 864 395 * 2;
#X obj 956 362 * 2;
#X obj -145 960 spigot;
#X obj 228 879 moses 1;
#X obj -42 960 spigot;
#X obj 71 960 spigot;
#X obj 175 960 spigot;
#X obj 328 960 spigot;
#X obj 457 960 spigot;
#X obj 566 960 spigot;
#X obj 668 960 spigot;
#X obj 809 960 spigot;
#X obj 1183 879 moses 1;
#X obj 912 960 spigot;
#X obj 1025 960 spigot;
#X obj 1129 960 spigot;
#X obj 1282 960 spigot;
#X obj 1411 960 spigot;
#X obj 1520 960 spigot;
#X obj 1622 960 spigot;
#X obj 809 1031 ctlout 11 13;
#X obj 912 1031 ctlout 12 13;
#X obj 1025 1031 ctlout 13 13;
#X obj 1129 1031 ctlout 14 13;
#X obj 1297 1031 ctlout 15 13;
#X obj 1421 1031 ctlout 16 13;
#X obj 1534 1031 ctlout 17 13;
#X obj 1636 1031 ctlout 18 13;
#X msg 277 -56 print;
#X obj -164 1067 print LstckUpA;
#X obj -42 1067 print LstckDnA;
#X obj 51 1067 print LstckLftA;
#X obj 175 1067 print LstckRhtA;
#X obj 324 1067 print RstckUpA;
#X obj 427 1067 print RstckDnA;
#X obj 580 1067 print RstckLftA;
#X obj 682 1067 print LstckRhtA;
#X obj 790 1067 print LstckUpB;
#X obj 912 1067 print LstckDnB;
#X obj 1005 1067 print LstckLftB;
#X obj 1129 1067 print LstckRhtB;
#X obj 1278 1067 print RstckUpB;
#X obj 1381 1067 print RstckDnB;
#X obj 1534 1067 print RstckLftB;
#X obj 1636 1067 print LstckRhtB;
#X obj 229 853 print LB;
#X obj 1180 853 print RB;
#X connect 0 0 19 0;
#X connect 0 0 24 0;
#X connect 0 0 38 0;
#X connect 0 0 44 0;
#X connect 0 0 53 0;
#X connect 1 0 0 0;
#X connect 2 0 3 0;
#X connect 3 0 0 0;
#X connect 4 0 2 0;
#X connect 5 0 29 0;
#X connect 6 0 30 0;
#X connect 7 0 8 0;
#X connect 7 1 20 0;
#X connect 8 0 25 0;
#X connect 8 0 173 0;
#X connect 9 0 12 0;
#X connect 9 1 21 0;
#X connect 10 0 13 0;
#X connect 10 1 22 0;
#X connect 11 0 14 0;
#X connect 11 1 23 0;
#X connect 12 0 26 0;
#X connect 12 0 174 0;
#X connect 13 0 27 0;
#X connect 13 0 175 0;
#X connect 14 0 28 0;
#X connect 14 0 176 0;
#X connect 15 0 7 0;
#X connect 16 0 9 0;
#X connect 17 0 10 0;
#X connect 18 0 11 0;
#X connect 19 0 206 0;
#X connect 19 0 248 0;
#X connect 19 1 215 0;
#X connect 19 1 249 0;
#X connect 20 0 25 0;
#X connect 20 0 173 0;
#X connect 21 0 26 0;
#X connect 21 0 174 0;
#X connect 22 0 27 0;
#X connect 22 0 175 0;
#X connect 23 0 28 0;
#X connect 23 0 176 0;
#X connect 24 0 15 0;
#X connect 24 1 16 0;
#X connect 24 2 17 0;
#X connect 24 3 18 0;
#X connect 29 0 105 0;
#X connect 29 0 106 0;
#X connect 29 0 118 0;
#X connect 29 0 119 0;
#X connect 30 0 124 0;
#X connect 30 0 137 0;
#X connect 30 0 125 0;
#X connect 30 0 138 0;
#X connect 31 0 149 0;
#X connect 32 0 70 0;
#X connect 33 0 31 0;
#X connect 34 0 159 0;
#X connect 35 0 162 0;
#X connect 36 0 165 0;
#X connect 37 0 183 0;
#X connect 37 0 193 0;
#X connect 37 0 201 0;
#X connect 37 0 202 0;
#X connect 38 0 71 0;
#X connect 38 1 85 0;
#X connect 38 2 5 0;
#X connect 38 3 6 0;
#X connect 38 4 39 0;
#X connect 39 0 37 0;
#X connect 42 0 45 0;
#X connect 42 1 46 0;
#X connect 43 0 47 0;
#X connect 43 1 48 0;
#X connect 44 0 42 0;
#X connect 44 1 43 0;
#X connect 45 0 49 0;
#X connect 45 0 171 0;
#X connect 46 0 49 0;
#X connect 46 0 171 0;
#X connect 47 0 50 0;
#X connect 47 0 172 0;
#X connect 48 0 50 0;
#X connect 48 0 172 0;
#X connect 51 0 56 0;
#X connect 51 1 57 0;
#X connect 52 0 58 0;
#X connect 52 1 59 0;
#X connect 53 0 51 0;
#X connect 53 1 52 0;
#X connect 56 0 54 0;
#X connect 56 0 177 0;
#X connect 57 0 54 0;
#X connect 57 0 177 0;
#X connect 58 0 55 0;
#X connect 58 0 178 0;
#X connect 59 0 55 0;
#X connect 59 0 178 0;
#X connect 70 0 158 0;
#X connect 71 0 72 0;
#X connect 72 0 73 0;
#X connect 73 0 74 0;
#X connect 73 0 75 0;
#X connect 73 0 141 0;
#X connect 73 0 179 0;
#X connect 74 0 84 0;
#X connect 75 0 76 0;
#X connect 76 0 143 0;
#X connect 77 0 78 0;
#X connect 78 0 79 0;
#X connect 79 0 33 0;
#X connect 80 0 32 0;
#X connect 81 0 82 0;
#X connect 82 0 83 0;
#X connect 83 0 80 0;
#X connect 84 0 142 0;
#X connect 85 0 86 0;
#X connect 86 0 90 0;
#X connect 87 0 155 0;
#X connect 88 0 152 0;
#X connect 89 0 87 0;
#X connect 90 0 91 0;
#X connect 90 0 92 0;
#X connect 90 0 144 0;
#X connect 90 0 145 0;
#X connect 91 0 101 0;
#X connect 92 0 93 0;
#X connect 93 0 147 0;
#X connect 94 0 95 0;
#X connect 95 0 103 0;
#X connect 96 0 89 0;
#X connect 97 0 88 0;
#X connect 98 0 99 0;
#X connect 99 0 102 0;
#X connect 100 0 97 0;
#X connect 101 0 146 0;
#X connect 102 0 100 0;
#X connect 103 0 96 0;
#X connect 104 0 35 0;
#X connect 105 0 115 0;
#X connect 106 0 107 0;
#X connect 107 0 121 0;
#X connect 108 0 109 0;
#X connect 109 0 117 0;
#X connect 110 0 104 0;
#X connect 111 0 34 0;
#X connect 112 0 113 0;
#X connect 113 0 116 0;
#X connect 114 0 111 0;
#X connect 115 0 120 0;
#X connect 116 0 114 0;
#X connect 117 0 110 0;
#X connect 118 0 105 1;
#X connect 119 0 106 1;
#X connect 120 0 112 0;
#X connect 121 0 108 0;
#X connect 122 0 168 0;
#X connect 123 0 122 0;
#X connect 124 0 134 0;
#X connect 125 0 126 0;
#X connect 126 0 140 0;
#X connect 127 0 128 0;
#X connect 128 0 136 0;
#X connect 129 0 123 0;
#X connect 130 0 36 0;
#X connect 131 0 132 0;
#X connect 132 0 135 0;
#X connect 133 0 130 0;
#X connect 134 0 139 0;
#X connect 135 0 133 0;
#X connect 136 0 129 0;
#X connect 137 0 124 1;
#X connect 138 0 125 1;
#X connect 139 0 131 0;
#X connect 140 0 127 0;
#X connect 141 0 75 1;
#X connect 142 0 81 0;
#X connect 143 0 77 0;
#X connect 144 0 91 1;
#X connect 145 0 92 1;
#X connect 146 0 98 0;
#X connect 147 0 94 0;
#X connect 148 0 205 0;
#X connect 148 0 214 0;
#X connect 149 0 150 0;
#X connect 150 0 151 0;
#X connect 151 0 207 0;
#X connect 151 0 216 0;
#X connect 152 0 153 0;
#X connect 153 0 154 0;
#X connect 154 0 208 0;
#X connect 154 0 217 0;
#X connect 155 0 156 0;
#X connect 156 0 157 0;
#X connect 157 0 209 0;
#X connect 157 0 218 0;
#X connect 158 0 148 0;
#X connect 159 0 160 0;
#X connect 160 0 161 0;
#X connect 161 0 210 0;
#X connect 161 0 219 0;
#X connect 162 0 163 0;
#X connect 163 0 164 0;
#X connect 164 0 211 0;
#X connect 164 0 220 0;
#X connect 165 0 166 0;
#X connect 166 0 167 0;
#X connect 167 0 212 0;
#X connect 167 0 221 0;
#X connect 168 0 169 0;
#X connect 169 0 170 0;
#X connect 170 0 213 0;
#X connect 170 0 222 0;
#X connect 179 0 74 1;
#X connect 181 0 188 0;
#X connect 182 0 181 0;
#X connect 183 0 203 0;
#X connect 184 0 185 0;
#X connect 185 0 187 0;
#X connect 186 0 182 0;
#X connect 187 0 186 0;
#X connect 188 0 189 0;
#X connect 189 0 190 0;
#X connect 190 0 68 0;
#X connect 190 0 40 0;
#X connect 191 0 199 0;
#X connect 192 0 191 0;
#X connect 193 0 204 0;
#X connect 194 0 195 0;
#X connect 195 0 196 0;
#X connect 196 0 198 0;
#X connect 197 0 192 0;
#X connect 198 0 197 0;
#X connect 199 0 200 0;
#X connect 200 0 69 0;
#X connect 200 0 41 0;
#X connect 201 0 183 1;
#X connect 202 0 193 1;
#X connect 203 0 184 0;
#X connect 204 0 194 0;
#X connect 205 0 60 0;
#X connect 205 0 232 0;
#X connect 206 0 205 1;
#X connect 206 0 207 1;
#X connect 206 0 208 1;
#X connect 206 0 209 1;
#X connect 206 0 210 1;
#X connect 206 0 211 1;
#X connect 206 0 212 1;
#X connect 206 0 213 1;
#X connect 206 1 205 1;
#X connect 206 1 207 1;
#X connect 206 1 208 1;
#X connect 206 1 209 1;
#X connect 206 1 210 1;
#X connect 206 1 211 1;
#X connect 206 1 212 1;
#X connect 206 1 213 1;
#X connect 207 0 61 0;
#X connect 207 0 233 0;
#X connect 208 0 62 0;
#X connect 208 0 234 0;
#X connect 209 0 63 0;
#X connect 209 0 235 0;
#X connect 210 0 64 0;
#X connect 210 0 236 0;
#X connect 211 0 65 0;
#X connect 211 0 237 0;
#X connect 212 0 66 0;
#X connect 212 0 238 0;
#X connect 213 0 67 0;
#X connect 213 0 239 0;
#X connect 214 0 223 0;
#X connect 214 0 240 0;
#X connect 215 0 214 1;
#X connect 215 0 216 1;
#X connect 215 0 217 1;
#X connect 215 0 218 1;
#X connect 215 0 219 1;
#X connect 215 0 220 1;
#X connect 215 0 221 1;
#X connect 215 0 222 1;
#X connect 215 1 214 1;
#X connect 215 1 216 1;
#X connect 215 1 217 1;
#X connect 215 1 218 1;
#X connect 215 1 219 1;
#X connect 215 1 220 1;
#X connect 215 1 221 1;
#X connect 215 1 222 1;
#X connect 216 0 224 0;
#X connect 216 0 241 0;
#X connect 217 0 225 0;
#X connect 217 0 242 0;
#X connect 218 0 226 0;
#X connect 218 0 243 0;
#X connect 219 0 227 0;
#X connect 219 0 244 0;
#X connect 220 0 228 0;
#X connect 220 0 245 0;
#X connect 221 0 229 0;
#X connect 221 0 246 0;
#X connect 222 0 230 0;
#X connect 222 0 247 0;
#X connect 231 0 0 0;
