#N canvas 0 0 1362 695 10;
#X obj -33 13 hidin;
#X obj -35 -34 tgl 15 0 empty empty empty 17 7 0 10 -262144 -1 -1 0
1;
#X floatatom -104 -46 5 0 0 0 - - -;
#X msg -102 -23 open \$1;
#X obj -104 -76 hradio 15 1 0 8 empty empty empty 0 -8 0 10 -262144
-1 -1 0;
#X floatatom 378 260 5 0 0 0 - - -;
#X floatatom 652 264 5 0 0 0 - - -;
#X obj 734 26 moses 1;
#X msg 16 -25 print;
#X msg 696 62 64 \$1;
#X obj 816 35 moses 1;
#X obj 890 26 moses 1;
#X obj 999 31 moses 1;
#X msg 801 84 71 \$1;
#X msg 891 75 74 \$1;
#X msg 1003 67 66 \$1;
#X floatatom 741 -16 5 0 0 0 - - -;
#X floatatom 830 -8 5 0 0 0 - - -;
#X floatatom 884 -9 5 0 0 0 - - -;
#X floatatom 990 -3 5 0 0 0 - - -;
#X obj 171 -73 route 11 12;
#X msg 747 61 64 127;
#X msg 843 83 71 127;
#X msg 937 74 74 127;
#X msg 1046 66 66 127;
#X obj 738 -43 route 7 8 9 10;
#X obj 666 104 print A;
#X obj 776 140 print B;
#X obj 892 143 print X;
#X obj 1015 146 print Y;
#X obj 130 -32 moses 1;
#X obj 267 3 moses 1;
#X msg 252 47 56 \$1;
#X msg 303 46 56 127;
#X obj 88 82 print LB;
#X obj 222 89 print RB;
#X obj 418 306 / 65535;
#X obj 676 309 / 65535;
#X floatatom -41 523 5 0 0 0 - - -;
#X obj -126 726 print LstckUp;
#X obj -11 724 print LstckDn;
#X floatatom -140 533 5 0 0 0 - - -;
#X obj -42 496 i;
#X obj 119 753 print LstckLft;
#X obj 226 760 print LstckRht;
#X floatatom 363 644 5 0 0 0 - - -;
#X floatatom 498 646 5 0 0 0 - - -;
#X obj 385 782 print RstckUp;
#X floatatom 665 649 5 0 0 0 - - -;
#X obj 519 803 print RstckDn;
#X obj 691 804 print RstckLft;
#X obj 794 803 print LstckRht;
#X obj -124 39 print;
#X obj 900 239 / 65535;
#X obj 3 117 route 1 2 3 4 5;
#X floatatom 900 212 5 0 0 0 - - -;
#X obj 924 802 print RTrig;
#X obj 1013 801 print LTrig;
#X obj 411 7 moses 1;
#X obj 545 14 moses 1;
#X obj 451 -37 route 13 14;
#X msg 396 51 57 \$1;
#X msg 447 50 57 127;
#X msg 530 58 58 \$1;
#X msg 581 57 58 127;
#X obj 366 93 print Back;
#X obj 500 100 print Start;
#X obj 1087 274 moses 1;
#X obj 1221 281 moses 1;
#X obj 1127 230 route 15 16;
#X obj 1042 360 print Lstick;
#X obj 1184 371 print Rstick;
#X msg 1072 318 59 \$1;
#X msg 1123 316 59 127;
#X msg 1206 325 60 \$1;
#X msg 1257 324 60 127;
#X obj -152 697 ctlout 1 13;
#X obj -44 688 ctlout 2 13;
#X obj 98 729 ctlout 3 13;
#X obj 210 732 ctlout 4 13;
#X obj 363 757 ctlout 5 13;
#X obj 497 773 ctlout 6 13;
#X obj 664 777 ctlout 7 13;
#X obj 767 779 ctlout 8 13;
#X obj 892 773 ctlout 9 13;
#X obj 1008 768 ctlout 10 13;
#X msg 108 29 55 \$1;
#X msg 174 32 55 127;
#X obj -140 576 clip 0 127;
#X floatatom -97 152 5 0 0 0 - - -;
#X obj -97 181 / 65535;
#X floatatom -97 204 5 0 0 0 - - -;
#X obj -137 284 spigot;
#X obj -40 286 spigot;
#X obj -40 319 - 1;
#X floatatom -41 398 5 0 0 0 - - -;
#X obj -41 430 abs;
#X obj -41 465 * 127;
#X obj -140 503 i;
#X floatatom -140 397 5 0 0 0 - - -;
#X obj -140 431 abs;
#X obj -140 467 * 127;
#X floatatom -140 321 5 0 0 0 - - -;
#X floatatom 152 182 5 0 0 0 - - -;
#X obj 152 218 / 65535;
#X floatatom 208 600 5 0 0 0 - - -;
#X floatatom 109 591 5 0 0 0 - - -;
#X obj 208 573 i;
#X floatatom 152 252 5 0 0 0 - - -;
#X obj 112 332 spigot;
#X obj 209 334 spigot;
#X obj 209 367 - 1;
#X floatatom 208 446 5 0 0 0 - - -;
#X obj 208 470 abs;
#X obj 208 542 * 127;
#X obj 109 551 i;
#X floatatom 109 445 5 0 0 0 - - -;
#X obj 109 471 abs;
#X obj 109 515 * 127;
#X floatatom 109 369 5 0 0 0 - - -;
#X obj 108 493 clip 0 1;
#X obj 208 503 clip 0 1;
#X obj 498 620 i;
#X obj 368 392 spigot;
#X obj 497 394 spigot;
#X obj 497 427 - 1;
#X floatatom 498 490 5 0 0 0 - - -;
#X obj 498 514 abs;
#X obj 498 586 * 127;
#X obj 365 611 i;
#X floatatom 365 505 5 0 0 0 - - -;
#X obj 365 531 abs;
#X obj 365 575 * 127;
#X floatatom 365 429 5 0 0 0 - - -;
#X obj 364 553 clip 0 1;
#X obj 498 547 clip 0 1;
#X obj 401 361 < 0.2;
#X obj 530 359 > 0.8;
#X obj 365 465 / 0.2;
#X obj 497 460 / 0.2;
#X floatatom 767 654 5 0 0 0 - - -;
#X obj 767 620 i;
#X obj 669 392 spigot;
#X obj 766 394 spigot;
#X obj 766 427 - 1;
#X floatatom 767 490 5 0 0 0 - - -;
#X obj 767 514 abs;
#X obj 767 586 * 127;
#X obj 666 611 i;
#X floatatom 666 505 5 0 0 0 - - -;
#X obj 666 531 abs;
#X obj 666 575 * 127;
#X floatatom 666 429 5 0 0 0 - - -;
#X obj 665 553 clip 0 1;
#X obj 764 547 clip 0 1;
#X obj 702 363 < 0.2;
#X obj 799 359 > 0.8;
#X obj 666 465 / 0.2;
#X obj 766 460 / 0.2;
#X obj -8 251 > 0.8;
#X obj -140 357 / 0.2;
#X obj -41 366 / 0.2;
#X obj 144 302 < 0.2;
#X obj 241 299 > 0.8;
#X obj 109 405 / 0.2;
#X obj 208 414 / 0.2;
#X obj 153 88 noteout 7;
#X obj 291 96 noteout 7;
#X obj -140 645 abs;
#X obj -41 567 clip 0 127;
#X obj -41 602 - 127;
#X obj -41 636 abs;
#X obj 108 626 clip 0 127;
#X obj 108 661 - 127;
#X obj 108 695 abs;
#X obj 208 630 clip 0 127;
#X obj 208 665 - 127;
#X obj 208 699 abs;
#X obj -140 611 - 127;
#X obj 363 667 clip 0 127;
#X obj 363 702 - 127;
#X obj 363 736 abs;
#X obj 498 671 clip 0 127;
#X obj 498 706 - 127;
#X obj 498 740 abs;
#X obj 664 678 clip 0 127;
#X obj 664 713 - 127;
#X obj 664 747 abs;
#X obj 767 684 clip 0 127;
#X obj 767 719 - 127;
#X obj 767 753 abs;
#X obj 436 92 noteout 7;
#X obj 579 100 noteout 7;
#X obj 722 108 noteout 7;
#X obj 828 141 noteout 7;
#X obj 944 144 noteout 7;
#X obj 1067 147 noteout 7;
#X obj 1113 394 noteout 7;
#X obj 1258 392 noteout 7;
#X obj -99 253 < 0.2;
#X text 313 175 Deadzone = 0.2;
#X floatatom 876 613 5 0 0 0 - - -;
#X obj 876 579 i;
#X obj 875 353 spigot;
#X floatatom 875 412 5 0 0 0 - - -;
#X obj 875 444 abs;
#X obj 876 545 * 127;
#X obj 873 506 clip 0 1;
#X obj 876 643 clip 0 127;
#X obj 876 678 - 127;
#X obj 876 712 abs;
#X floatatom 968 609 5 0 0 0 - - -;
#X obj 968 575 i;
#X obj 967 349 spigot;
#X obj 968 410 - 1;
#X floatatom 968 445 5 0 0 0 - - -;
#X obj 968 469 abs;
#X obj 968 541 * 127;
#X obj 965 502 clip 0 1;
#X obj 968 639 clip 0 127;
#X obj 968 708 abs;
#X obj 908 318 < 0.5;
#X obj 1000 314 > 0.5;
#X obj 874 382 * 2;
#X obj 967 379 * 2;
#X connect 0 0 20 0;
#X connect 0 0 25 0;
#X connect 0 0 54 0;
#X connect 0 0 60 0;
#X connect 0 0 69 0;
#X connect 0 0 52 0;
#X connect 1 0 0 0;
#X connect 2 0 3 0;
#X connect 3 0 0 0;
#X connect 4 0 2 0;
#X connect 5 0 36 0;
#X connect 6 0 37 0;
#X connect 7 0 9 0;
#X connect 7 1 21 0;
#X connect 8 0 0 0;
#X connect 9 0 26 0;
#X connect 9 0 193 0;
#X connect 10 0 13 0;
#X connect 10 1 22 0;
#X connect 11 0 14 0;
#X connect 11 1 23 0;
#X connect 12 0 15 0;
#X connect 12 1 24 0;
#X connect 13 0 27 0;
#X connect 13 0 194 0;
#X connect 14 0 28 0;
#X connect 14 0 195 0;
#X connect 15 0 29 0;
#X connect 15 0 196 0;
#X connect 16 0 7 0;
#X connect 17 0 10 0;
#X connect 18 0 11 0;
#X connect 19 0 12 0;
#X connect 20 0 30 0;
#X connect 20 1 31 0;
#X connect 21 0 26 0;
#X connect 21 0 193 0;
#X connect 22 0 27 0;
#X connect 22 0 194 0;
#X connect 23 0 28 0;
#X connect 23 0 195 0;
#X connect 24 0 29 0;
#X connect 24 0 196 0;
#X connect 25 0 16 0;
#X connect 25 1 17 0;
#X connect 25 2 18 0;
#X connect 25 3 19 0;
#X connect 30 0 86 0;
#X connect 30 1 87 0;
#X connect 31 0 32 0;
#X connect 31 1 33 0;
#X connect 32 0 35 0;
#X connect 32 0 167 0;
#X connect 33 0 35 0;
#X connect 33 0 167 0;
#X connect 36 0 123 0;
#X connect 36 0 124 0;
#X connect 36 0 136 0;
#X connect 36 0 137 0;
#X connect 37 0 142 0;
#X connect 37 0 155 0;
#X connect 37 0 143 0;
#X connect 37 0 156 0;
#X connect 38 0 169 0;
#X connect 41 0 88 0;
#X connect 42 0 38 0;
#X connect 45 0 179 0;
#X connect 46 0 182 0;
#X connect 48 0 185 0;
#X connect 53 0 203 0;
#X connect 53 0 213 0;
#X connect 53 0 221 0;
#X connect 53 0 222 0;
#X connect 54 0 89 0;
#X connect 54 1 103 0;
#X connect 54 2 5 0;
#X connect 54 3 6 0;
#X connect 54 4 55 0;
#X connect 55 0 53 0;
#X connect 58 0 61 0;
#X connect 58 1 62 0;
#X connect 59 0 63 0;
#X connect 59 1 64 0;
#X connect 60 0 58 0;
#X connect 60 1 59 0;
#X connect 61 0 65 0;
#X connect 61 0 191 0;
#X connect 62 0 65 0;
#X connect 62 0 191 0;
#X connect 63 0 66 0;
#X connect 63 0 192 0;
#X connect 64 0 66 0;
#X connect 64 0 192 0;
#X connect 67 0 72 0;
#X connect 67 1 73 0;
#X connect 68 0 74 0;
#X connect 68 1 75 0;
#X connect 69 0 67 0;
#X connect 69 1 68 0;
#X connect 72 0 70 0;
#X connect 72 0 197 0;
#X connect 73 0 70 0;
#X connect 73 0 197 0;
#X connect 74 0 71 0;
#X connect 74 0 198 0;
#X connect 75 0 71 0;
#X connect 75 0 198 0;
#X connect 86 0 34 0;
#X connect 86 0 166 0;
#X connect 87 0 34 0;
#X connect 87 0 166 0;
#X connect 88 0 178 0;
#X connect 89 0 90 0;
#X connect 90 0 91 0;
#X connect 91 0 92 0;
#X connect 91 0 93 0;
#X connect 91 0 159 0;
#X connect 91 0 199 0;
#X connect 92 0 102 0;
#X connect 93 0 94 0;
#X connect 94 0 161 0;
#X connect 95 0 96 0;
#X connect 96 0 97 0;
#X connect 97 0 42 0;
#X connect 98 0 41 0;
#X connect 99 0 100 0;
#X connect 100 0 101 0;
#X connect 101 0 98 0;
#X connect 102 0 160 0;
#X connect 103 0 104 0;
#X connect 104 0 108 0;
#X connect 105 0 175 0;
#X connect 106 0 172 0;
#X connect 107 0 105 0;
#X connect 108 0 109 0;
#X connect 108 0 110 0;
#X connect 108 0 162 0;
#X connect 108 0 163 0;
#X connect 109 0 119 0;
#X connect 110 0 111 0;
#X connect 111 0 165 0;
#X connect 112 0 113 0;
#X connect 113 0 121 0;
#X connect 114 0 107 0;
#X connect 115 0 106 0;
#X connect 116 0 117 0;
#X connect 117 0 120 0;
#X connect 118 0 115 0;
#X connect 119 0 164 0;
#X connect 120 0 118 0;
#X connect 121 0 114 0;
#X connect 122 0 46 0;
#X connect 123 0 133 0;
#X connect 124 0 125 0;
#X connect 125 0 139 0;
#X connect 126 0 127 0;
#X connect 127 0 135 0;
#X connect 128 0 122 0;
#X connect 129 0 45 0;
#X connect 130 0 131 0;
#X connect 131 0 134 0;
#X connect 132 0 129 0;
#X connect 133 0 138 0;
#X connect 134 0 132 0;
#X connect 135 0 128 0;
#X connect 136 0 123 1;
#X connect 137 0 124 1;
#X connect 138 0 130 0;
#X connect 139 0 126 0;
#X connect 140 0 188 0;
#X connect 141 0 140 0;
#X connect 142 0 152 0;
#X connect 143 0 144 0;
#X connect 144 0 158 0;
#X connect 145 0 146 0;
#X connect 146 0 154 0;
#X connect 147 0 141 0;
#X connect 148 0 48 0;
#X connect 149 0 150 0;
#X connect 150 0 153 0;
#X connect 151 0 148 0;
#X connect 152 0 157 0;
#X connect 153 0 151 0;
#X connect 154 0 147 0;
#X connect 155 0 142 1;
#X connect 156 0 143 1;
#X connect 157 0 149 0;
#X connect 158 0 145 0;
#X connect 159 0 93 1;
#X connect 160 0 99 0;
#X connect 161 0 95 0;
#X connect 162 0 109 1;
#X connect 163 0 110 1;
#X connect 164 0 116 0;
#X connect 165 0 112 0;
#X connect 168 0 76 0;
#X connect 168 0 39 0;
#X connect 169 0 170 0;
#X connect 170 0 171 0;
#X connect 171 0 77 0;
#X connect 171 0 40 0;
#X connect 172 0 173 0;
#X connect 173 0 174 0;
#X connect 174 0 78 0;
#X connect 174 0 43 0;
#X connect 175 0 176 0;
#X connect 176 0 177 0;
#X connect 177 0 79 0;
#X connect 177 0 44 0;
#X connect 178 0 168 0;
#X connect 179 0 180 0;
#X connect 180 0 181 0;
#X connect 181 0 80 0;
#X connect 181 0 47 0;
#X connect 182 0 183 0;
#X connect 183 0 184 0;
#X connect 184 0 49 0;
#X connect 184 0 81 0;
#X connect 185 0 186 0;
#X connect 186 0 187 0;
#X connect 187 0 82 0;
#X connect 187 0 50 0;
#X connect 188 0 189 0;
#X connect 189 0 190 0;
#X connect 190 0 83 0;
#X connect 190 0 51 0;
#X connect 199 0 92 1;
#X connect 201 0 208 0;
#X connect 202 0 201 0;
#X connect 203 0 223 0;
#X connect 204 0 205 0;
#X connect 205 0 207 0;
#X connect 206 0 202 0;
#X connect 207 0 206 0;
#X connect 208 0 209 0;
#X connect 209 0 210 0;
#X connect 210 0 84 0;
#X connect 210 0 56 0;
#X connect 211 0 219 0;
#X connect 212 0 211 0;
#X connect 213 0 224 0;
#X connect 214 0 215 0;
#X connect 215 0 216 0;
#X connect 216 0 218 0;
#X connect 217 0 212 0;
#X connect 218 0 217 0;
#X connect 219 0 220 0;
#X connect 220 0 85 0;
#X connect 220 0 57 0;
#X connect 221 0 203 1;
#X connect 222 0 213 1;
#X connect 223 0 204 0;
#X connect 224 0 214 0;
